<svg xmlns="http://www.w3.org/2000/svg" width="1280" height="400" viewBox="0 0 1280 400" font-family="'Segoe UI', system-ui, -apple-system, sans-serif">
  <defs>
    <linearGradient id="bg" x1="0" y1="0" x2="0" y2="1">
      <stop offset="0" stop-color="#FFFDFA"/>
      <stop offset="1" stop-color="#FBF2E3"/>
    </linearGradient>
    <linearGradient id="hop" x1="0" y1="0" x2="1" y2="0">
      <stop offset="0" stop-color="#E7C089"/>
      <stop offset="1" stop-color="#cf6b5e"/>
    </linearGradient>
  </defs>

  <rect width="1280" height="400" fill="url(#bg)"/>

  <!-- little sparkles for charm -->
  <g fill="#E7C089">
    <path d="M405 96 l7 16 16 7 -16 7 -7 16 -7 -16 -16 -7 16 -7 z" opacity="0.9"/>
    <path d="M872 130 l5 12 12 5 -12 5 -5 12 -5 -12 -12 -5 12 -5 z" fill="#cf6b5e" opacity="0.85"/>
  </g>

  <!-- wordmark -->
  <text x="640" y="205" text-anchor="middle" font-size="120" font-weight="800" letter-spacing="-3" fill="#4A3728">Side<tspan fill="#cf6b5e">step</tspan></text>

  <!-- the bouncy 'hop': dotted arc over the block, landing on the goal -->
  <g fill="none">
    <!-- start dot -->
    <circle cx="410" cy="300" r="9" fill="#E7C089"/>
    <!-- dotted arc -->
    <path d="M410 300 Q 640 150 862 300"
          stroke="url(#hop)" stroke-width="9" stroke-linecap="round" stroke-dasharray="0.1 26"/>
    <!-- the block it hops over (the distraction) -->
    <rect x="626" y="286" width="28" height="28" rx="9" fill="#E4D5BC"/>
    <!-- the goal it lands on -->
    <circle cx="862" cy="300" r="18" fill="none" stroke="#cf6b5e" stroke-width="6"/>
    <circle cx="862" cy="300" r="6" fill="#cf6b5e"/>
  </g>

  <!-- tagline -->
  <text x="640" y="368" text-anchor="middle" font-size="29" font-weight="600" fill="#9C6A2A">Don’t block the distraction — sidestep it.</text>
</svg>
